<svg height="512pt" viewBox="0 -59 512 511" width="512pt" xmlns="http://www.w3.org/2000/svg"><path d="m350 326.5h152v-108l-83.667969-83.871094h-68.332031zm0 0" fill="#00ccf2"/><path d="m502 218.5-83.667969-83.871094h-20.332031v99.871094c0 11.046875 8.953125 20 20 20h84zm0 0" fill="#fff"/><path d="m466 342.5c0 22.089844-17.910156 40-40 40s-40-17.910156-40-40 17.910156-40 40-40 40 17.910156 40 40zm0 0" fill="#98a1b3"/><path d="m10 10.5h340v316h-340zm0 0" fill="#ffcb7c"/><path d="m146 10.5v14.5c0 18.777344-15.222656 34-34 34s-34-15.222656-34-34v-14.5zm0 0" fill="#ff6977"/><path d="m214 10.5v14.5c0 18.777344-15.222656 34-34 34s-34-15.222656-34-34v-14.5zm0 0" fill="#fff"/><path d="m282 10.5v14.5c0 18.777344-15.222656 34-34 34s-34-15.222656-34-34v-14.5zm0 0" fill="#ff6977"/><path d="m78 10.5v14.5c0 18.777344-15.222656 34-34 34s-34-15.222656-34-34v-14.5zm0 0" fill="#fff"/><path d="m350 10.5v14.5c0 18.777344-15.222656 34-34 34s-34-15.222656-34-34v-14.5zm0 0" fill="#fff"/><path d="m213.917969 342.5c0 22.089844-17.910157 40-40 40-22.09375 0-40-17.910156-40-40s17.90625-40 40-40c22.089843 0 40 17.910156 40 40zm0 0" fill="#98a1b3"/><path d="m133.917969 342.5c0 22.089844-17.910157 40-40 40-22.09375 0-40-17.910156-40-40s17.90625-40 40-40c22.089843 0 40 17.910156 40 40zm0 0" fill="#98a1b3"/><path d="m284 216.441406h-208c0 22.09375 17.910156 40 40 40h128c22.089844 0 40-17.90625 40-40zm0 0" fill="#becfcf"/><path d="m180 114.539062c-52.28125 0-94.667969 42.386719-94.667969 94.667969v7.238281h189.332031v-7.238281c.003907-52.28125-42.382812-94.667969-94.664062-94.667969zm0 0" fill="#e5ecec"/><path d="m509.078125 211.4375-83.664063-83.871094c-1.878906-1.882812-4.425781-2.9375-7.082031-2.9375h-58.332031v-114.128906c0-5.523438-4.476562-10-10-10h-340c-5.523438 0-10 4.476562-10 10v126.855469c0 5.523437 4.476562 10 10 10s10-4.476563 10-10v-75.503907c6.90625 4.511719 15.148438 7.148438 24 7.148438 13.683594 0 25.925781-6.277344 34-16.105469 8.074219 9.828125 20.316406 16.105469 34 16.105469s25.925781-6.277344 34-16.105469c8.074219 9.828125 20.316406 16.105469 34 16.105469s25.925781-6.277344 34-16.105469c8.074219 9.828125 20.316406 16.105469 34 16.105469s25.925781-6.277344 34-16.105469c8.074219 9.828125 20.316406 16.105469 34 16.105469 8.851562 0 17.09375-2.636719 24-7.148438v254.648438h-123.390625c-8.792969-14.382812-24.636719-24-42.691406-24-16.339844 0-30.871094 7.878906-40 20.035156-9.132813-12.15625-23.660157-20.035156-40-20.035156-18.054688 0-33.902344 9.617188-42.691407 24h-31.226562v-99.144531c0-5.523438-4.476562-10-10-10s-10 4.476562-10 10v109.144531c0 5.523438 4.476562 10 10 10h34.289062c-.234374 1.96875-.371093 3.96875-.371093 6 0 11.246094 3.734375 21.636719 10.027343 30h-43.945312c-5.523438 0-10 4.476562-10 10s4.476562 10 10 10h163.917969c27.570312 0 50-22.429688 50-50 0-2.03125-.136719-4.03125-.375-6h152.828125c-.234375 1.96875-.371094 3.96875-.371094 6 0 11.246094 3.734375 21.636719 10.027344 30h-89.027344c-5.523438 0-10 4.476562-10 10s4.476562 10 10 10h129c27.570312 0 50-22.429688 50-50 0-2.03125-.136719-4.03125-.371094-6h26.371094c5.523438 0 10-4.476562 10-10v-108c0-2.648438-1.050781-5.1875-2.921875-7.0625zm-445.160156 131.0625c0-16.542969 13.457031-30 30-30s30 13.457031 30 30-13.457031 30-30 30-30-13.457031-30-30zm70 29.964844c.007812.011718.015625.023437.027343.035156h-.054687c.007813-.011719.015625-.023438.027344-.035156zm40 .035156c-16.542969 0-30-13.457031-30-30s13.457031-30 30-30 30 13.457031 30 30-13.457031 30-30 30zm318.082031-149.863281v21.863281h-74c-5.515625 0-10-4.484375-10-10v-89.871094h6.183594zm-448-173.636719c-13.234375 0-24-10.765625-24-24v-4.5h48v4.5c0 13.234375-10.765625 24-24 24zm68 0c-13.234375 0-24-10.765625-24-24v-4.5h48v4.5c0 13.234375-10.765625 24-24 24zm68 0c-13.234375 0-24-10.765625-24-24v-4.5h48v4.5c0 13.234375-10.765625 24-24 24zm68 0c-13.234375 0-24-10.765625-24-24v-4.5h48v4.5c0 13.234375-10.765625 24-24 24zm68 0c-13.234375 0-24-10.765625-24-24v-4.5h48v4.5c0 13.234375-10.765625 24-24 24zm110 323.5c-16.542969 0-30-13.457031-30-30s13.457031-30 30-30 30 13.457031 30 30-13.457031 30-30 30zm42.691406-56c-8.789062-14.382812-24.636718-24-42.691406-24s-33.902344 9.617188-42.691406 24h-23.308594v-171.871094h28v89.871094c0 16.542969 13.457031 30 30 30h74v52zm0 0"/><path d="m255 372.5c-2.628906 0-5.210938 1.070312-7.070312 2.929688-1.859376 1.859374-2.929688 4.441406-2.929688 7.070312s1.070312 5.210938 2.929688 7.070312c1.859374 1.859376 4.441406 2.929688 7.070312 2.929688s5.210938-1.070312 7.070312-2.929688c1.859376-1.859374 2.929688-4.441406 2.929688-7.070312s-1.070312-5.210938-2.929688-7.070312c-1.859374-1.859376-4.441406-2.929688-7.070312-2.929688zm0 0"/><path d="m180 87.539062c-5.523438 0-10 4.480469-10 10v7.480469c-52.148438 4.96875-93.265625 48.351563-94.632812 101.457031-5.226563.328126-9.367188 4.65625-9.367188 9.964844 0 27.570313 22.429688 50 50 50h128c27.570312 0 50-22.429687 50-50 0-5.308594-4.140625-9.640625-9.367188-9.964844-1.367187-53.105468-42.484374-96.488281-94.632812-101.457031v-7.480469c0-5.519531-4.476562-10-10-10zm64 158.902344h-128c-13.035156 0-24.160156-8.355468-28.285156-20h184.570312c-4.125 11.644532-15.25 20-28.285156 20zm20.621094-40h-169.242188c1.464844-45.40625 38.859375-81.902344 84.621094-81.902344s83.15625 36.496094 84.621094 81.902344zm0 0"/><path d="m10 187.359375c2.628906 0 5.210938-1.070313 7.070312-2.929687 1.859376-1.871094 2.929688-4.441407 2.929688-7.082032 0-2.628906-1.070312-5.199218-2.929688-7.066406-1.859374-1.859375-4.441406-2.921875-7.070312-2.921875s-5.210938 1.0625-7.070312 2.921875c-1.859376 1.859375-2.929688 4.4375-2.929688 7.070312 0 2.640626 1.070312 5.21875 2.929688 7.078126 1.859374 1.859374 4.441406 2.929687 7.070312 2.929687zm0 0"/></svg>