<svg id="Filled" height="512" viewBox="0 0 512 512" width="512" xmlns="http://www.w3.org/2000/svg"><path d="m348.343 8.662h32v181.99h-32z" fill="#e1e3e6" transform="matrix(.707 .707 -.707 .707 177.182 -228.441)"/><path d="m115.9 72.891-43.9 43.417 28 27.692 44-40s-27.872-31.428-28.1-31.109z" fill="#f0c6a4"/><path d="m256 88c0-30.928 28.654-56 64-56 0 30.928-28.654 56-64 56z" fill="#35a872"/><circle cx="256" cy="144" fill="#f5dd67" r="72"/><circle cx="192" cy="224" fill="#eb423f" r="72"/><circle cx="320" cy="224" fill="#f78a25" r="72"/><path d="m104 216h304a0 0 0 0 1 0 0v24a120 120 0 0 1 -120 120h-64a120 120 0 0 1 -120-120v-24a0 0 0 0 1 0 0z" fill="#dadcde"/><path d="m208 456h96a32 32 0 0 1 32 32h-160a32 32 0 0 1 32-32z" fill="#e1e3e6"/><path d="m240 360h32v96h-32z" fill="#c3c6c7"/><circle cx="256" cy="48" fill="#eb423f" r="24"/><path d="m445.657 40.973-22.63-22.63a8 8 0 0 0 -11.314 0l-86.149 86.148a79.946 79.946 0 0 0 -21.764-24.626c.927-.731 1.844-1.472 2.729-2.247 13.846-12.118 21.471-28.324 21.471-45.618a8 8 0 0 0 -8-8 79.38 79.38 0 0 0 -35.978 8.569 31.987 31.987 0 1 0 -52.971 35.436 80.317 80.317 0 0 0 -52.051 54.338l-26.964-26.482-.141.144a8.019 8.019 0 0 0 -1.468-2l-28-27.692a8 8 0 0 0 -11.251 0l-44.8 44.307a8 8 0 0 0 0 11.377l28 27.692a8 8 0 0 0 11.251 0l39.055-38.625 31.374 30.809c-.019.709-.054 1.414-.054 2.128 0 .541.013 1.08.023 1.619a80.491 80.491 0 0 0 -62.411 62.38h-9.614a8 8 0 0 0 -8 8v24a128.146 128.146 0 0 0 128 128h8v80h-24a40.045 40.045 0 0 0 -40 40 8 8 0 0 0 8 8h160a8 8 0 0 0 8-8 40.045 40.045 0 0 0 -40-40h-24v-80h8a128.146 128.146 0 0 0 128-128v-24a8 8 0 0 0 -8-8h-9.61a80.131 80.131 0 0 0 -49.733-58.712l97-97a8 8 0 0 0 0-11.315zm-345.657 91.775-16.623-16.44 33.423-33.056 16.623 16.44zm195.993-67.17a54.862 54.862 0 0 1 -7.325 5.377 79.092 79.092 0 0 0 -7.694-2.981 31.833 31.833 0 0 0 7.009-19.315 61.568 61.568 0 0 1 23.117-8.046 45.89 45.89 0 0 1 -15.107 24.965zm-55.993-17.578a16 16 0 1 1 16 16 16.019 16.019 0 0 1 -16-16zm16 32c.787 0 1.583.018 2.354.045a63.194 63.194 0 0 1 26.966 7.055 63.9 63.9 0 0 1 34.68 56.9 79.7 79.7 0 0 0 -64 31.981 79.7 79.7 0 0 0 -64-31.981 64.072 64.072 0 0 1 64-64zm-70.673 80.346a64.048 64.048 0 0 1 61.673 30.922 79.135 79.135 0 0 0 -5.395 16.732h-111.568a64.32 64.32 0 0 1 55.29-47.654zm141.302 319.654h-141.258a24.042 24.042 0 0 1 22.629-16h96a24.042 24.042 0 0 1 22.629 16zm-62.629-32h-16v-80h16zm136-208a112.127 112.127 0 0 1 -112 112h-64a112.127 112.127 0 0 1 -112-112v-16h288zm-18.043-32h-123.937a64 64 0 0 1 61.98-48 64.024 64.024 0 0 1 6.709.35c1.683.169 3.437.422 5.2.753a64.452 64.452 0 0 1 50.048 46.897zm-46.1-68.543a79.442 79.442 0 0 0 -3.456-19.176l84.969-84.968 11.317 11.317z"/><path d="m224 120h16v16h-16z"/><path d="m248 96h16v16h-16z"/><path d="m272 120h16v16h-16z"/></svg>