<svg height="511pt" viewBox="-86 1 511 511.99946" width="511pt" xmlns="http://www.w3.org/2000/svg"><path d="m330.492188 310.003906v151.996094c0 22.089844-17.90625 40-39.996094 40h-159.996094c-22.089844 0-40-17.910156-40-40 0-13.125 0-134.046875 0-151.996094 0-23.375 10.105469-45.011718 27.078125-60h185.835937c16.601563 14.660156 27.078126 36.109375 27.078126 60zm0 0" fill="#ff637b"/><path d="m310.496094 210.007812c11.046875 0 19.996094 8.949219 19.996094 20 0 11.039063-8.957032 19.996094-19.996094 19.996094-10.25 0-190.035156 0-199.996094 0-11.050781 0-20-8.949218-20-19.996094 0-11.042968 8.960938-20 20-20zm0 0" fill="#e0f4ff"/><path d="m298.375 11.632812c10.148438 4.347657 14.847656 16.097657 10.5 26.257813l-39.480469 92.117187h-43.507812l46.230469-107.875c4.328124-10.152343 16.078124-14.863281 26.257812-10.5zm0 0" fill="#766e6e"/><path d="m160.496094 170.007812c-16.558594 0-29.996094-13.441406-29.996094-30 0-24.1875 17.1875-44.378906 40.019531-49 .65625 21.632813 22.777344 39 49.976563 39h50c11.039062 0 20 8.960938 20 20 0 11.050782-8.949219 20-20 20h20c11.046875 0 20 8.949219 20 20 0 11.050782-8.953125 20-20 20h-159.996094c-11.050781 0-20-8.949218-20-20 0-11.050781 8.949219-20 20-20zm0 0" fill="#fed2a4"/><path d="m260.496094 376.003906c0 27.609375-22.390625 69.996094-50 69.996094s-50-42.386719-50-69.996094 22.390625-30 50-30 50 2.390625 50 30zm0 0" fill="#e0f4ff"/><path d="m93.019531 290.003906c-1.648437 6.390625-2.519531 13.101563-2.519531 20v20h-10c-16.558594 0-30 13.441406-30 30 0 16.570313 13.429688 30 30 30h10v39.996094h-10c-38.660156 0-70-31.335938-70-69.996094 0-38.65625 31.339844-70 70-70zm0 0" fill="#766e6e"/><path d="m80.5 440v22c0 27.570312 22.429688 50 50 50h159.996094c27.566406 0 49.996094-22.429688 49.996094-50v-46c0-5.519531-4.476563-10-10-10-5.519532 0-9.996094 4.480469-9.996094 10v46c0 16.542969-13.460938 30-30 30h-159.996094c-16.542969 0-30-13.457031-30-30v-151.996094c0-18.609375 7.328125-36.59375 21.023438-50h177.960937c13.394531 13.140625 21.011719 31.160156 21.011719 50v26c0 5.523438 4.476562 10 9.996094 10 5.523437 0 10-4.476562 10-10v-26c0-19.140625-6.113282-37.617187-17.175782-52.863281 10.035156-4.75 17.175782-15.015625 17.175782-27.132813 0-13.816406-9.386719-25.472656-22.117188-28.945312 1.359375-3.421875 2.121094-7.152344 2.121094-11.054688 0-13.816406-9.390625-25.472656-22.121094-28.941406 1.363281-3.425781 2.121094-7.15625 2.121094-11.058594 0-12.03125-7.070313-22.34375-17.164063-27.128906l34.734375-81.050781c6.507813-15.207031-.558594-32.875-15.753906-39.390625-15.269531-6.539062-32.890625.527344-39.390625 15.753906l-43.621094 101.792969c-21.015625-.476563-38.304687-13.421875-38.789062-29.28125-.089844-2.945313-1.472657-5.699219-3.78125-7.53125-2.3125-1.828125-5.3125-2.546875-8.199219-1.964844-27.832031 5.632813-48.035156 30.363281-48.035156 58.800781 0 7.265626 1.933594 14.238282 5.542968 20.332032-14.433593 2.160156-25.542968 14.640625-25.542968 29.667968 0 3.902344.757812 7.628907 2.121094 11.050782-4.992188 1.351562-9.574219 3.980468-13.332032 7.738281-5.664062 5.667969-8.789062 13.199219-8.789062 21.210937 0 11.949219 7.027344 22.289063 17.167968 27.105469-5.09375 7-9.136718 14.695313-12.023437 22.890625h-5.144531c-44.03125 0-79.996094 35.621094-79.996094 80 0 44.109375 35.886719 79.996094 80 79.996094zm0-59.996094c-11.027344 0-20-8.972656-20-20 0-11.046875 8.953125-20 20-20zm200.8125-353.949218c2.164062-5.070313 8.027344-7.414063 13.125-5.230469 5.0625 2.167969 7.417969 8.0625 5.246094 13.128906l-36.882813 86.054687h-21.75zm-150.8125 153.953124h59.996094c5.523437 0 10-4.476562 10-10 0-5.523437-4.476563-10-10-10-13.835938 0-22.84375 0-30 0-11.042969 0-19.996094-8.953124-19.996094-20 0-15.484374 8.976562-29.320312 22.367188-35.914062 7.222656 20.914062 30.164062 35.914062 57.628906 35.914062h50c5.519531 0 10 4.476563 10 10 0 5.515626-4.488282 10-10 10-5.523438 0-10 4.476563-10 10 0 5.523438 4.476562 10 10 10h20c5.511718 0 10 4.484376 10 10 0 5.511719-4.488282 10-10 10h-159.996094c-5.515625 0-10-4.488281-10-10 0-5.515624 4.484375-10 10-10zm-27.070312 42.929688c1.890624-1.890625 4.402343-2.929688 7.070312-2.929688h199.992188c5.515624 0 10 4.484376 10 10 0 5.519532-4.476563 9.996094-10 9.996094h-199.992188c-5.515625 0-10-4.484375-10-9.996094 0-2.671874 1.039062-5.179687 2.929688-7.070312zm-22.929688 77.066406h.566406c-.371094 3.3125-.566406 6.652344-.566406 10v10c-22.097656 0-40 17.898438-40 40 0 22.054688 17.945312 40 40 40v19.996094c-33.082031 0-60-26.914062-60-59.996094 0-33.023437 26.714844-60 60-60zm0 0"/><path d="m240.496094 316.003906c5.523437 0 10-4.476562 10-10 0-5.523437-4.476563-10-10-10-22.054688 0-40 17.945313-40 40v.160156c-29.167969 1.03125-49.996094 9.78125-49.996094 39.839844 0 32.535156 25.808594 79.996094 59.996094 79.996094 34.171875 0 60-47.464844 60-79.996094 0-30.070312-20.84375-38.808594-50-39.839844v-.160156c0-11.027344 8.972656-20 20-20zm10 60c0 23.199219-19.410156 59.996094-40 59.996094-20.71875 0-40-36.996094-40-59.996094 0-14.761718 6.042968-20 40-20 33.957031 0 40 5.238282 40 20zm0 0"/><path d="m340.492188 376.003906c0 5.519532-4.476563 10-10 10-5.519532 0-9.996094-4.480468-9.996094-10 0-5.523437 4.476562-10 9.996094-10 5.523437 0 10 4.476563 10 10zm0 0"/></svg>