<svg height="511pt" viewBox="1 -1 511.999 511" width="511pt" xmlns="http://www.w3.org/2000/svg"><g fill-rule="evenodd"><path d="m41.851562 315.347656h438.800782c11.683594 0 21.246094-9.527344 21.246094-21.199218 0-11.640626-9.5625-21.195313-21.246094-21.195313h-449.335938c-11.679687 0-21.214844 9.554687-21.214844 21.195313 0 11.671874 9.535157 21.199218 21.214844 21.199218zm0 0" fill="#eff3f3"/><path d="m463.847656 315.347656h-421.996094v136.421875h421.996094zm0 0" fill="#ffc15a"/><path d="m319.15625 353.851562h-139.136719c-14.460937 0-26.285156 11.8125-26.285156 26.261719 0 14.445313 11.824219 26.257813 26.285156 26.257813h139.136719c14.457031 0 26.28125-11.8125 26.28125-26.257813 0-14.449219-11.824219-26.261719-26.28125-26.261719zm0 0" fill="#ff6977"/><path d="m88.519531 488.617188v-36.847657h-46.667969v36.847657c0 5.375 4.410157 9.78125 9.792969 9.78125h27.082031c5.382813 0 9.792969-4.40625 9.792969-9.78125zm0 0" fill="#eff3f3"/><path d="m417.183594 451.769531v36.847657c0 5.375 4.410156 9.78125 9.789062 9.78125h27.085938c5.378906 0 9.789062-4.40625 9.789062-9.78125v-36.847657zm0 0" fill="#eff3f3"/><path d="m69.335938 272.953125h127.542968v-23.316406c0-12.816407-10.507812-23.3125-23.332031-23.3125h-104.210937zm0 0" fill="#ff6977"/><path d="m260.378906 249.636719v23.316406h46.667969v-23.316406c0-12.816407-10.507813-23.3125-23.332031-23.3125-12.828125 0-23.335938 10.496093-23.335938 23.3125zm0 0" fill="#ff6977"/><path d="m342.691406 249.636719v23.316406h46.664063v-23.316406c0-12.816407-10.507813-23.3125-23.332031-23.3125-12.855469 0-23.332032 10.496093-23.332032 23.3125zm0 0" fill="#ff6977"/><path d="m95.390625 152.917969c10.878906 0 19.78125-8.894531 19.78125-19.765625v-46.628906h-92.902344v46.628906c0 10.871094 8.875 19.765625 19.753907 19.765625zm0 0" fill="#ff6977"/><path d="m115.171875 133.152344c0 10.871094 8.902344 19.765625 19.78125 19.765625h48.011719c10.878906 0 19.785156-8.894531 19.785156-19.765625v-46.628906h-87.578125zm0 0" fill="#aac0c1"/><path d="m202.75 86.523438v46.628906c0 10.871094 8.902344 19.765625 19.78125 19.765625h53.878906c10.878906 0 19.785156-8.894531 19.785156-19.765625v-46.628906zm0 0" fill="#ff6977"/><path d="m296.195312 86.523438v46.628906c0 10.871094 8.90625 19.765625 19.785157 19.765625h51.558593c10.851563 0 19.757813-8.894531 19.757813-19.765625v-46.628906zm0 0" fill="#aac0c1"/><path d="m387.292969 86.523438v46.628906c0 10.871094 8.90625 19.765625 19.785156 19.765625h54.421875c10.878906 0 19.785156-8.894531 19.785156-19.765625v-46.628906zm0 0" fill="#ff6977"/><path d="m387.292969 86.523438h93.992187l-47.324218-75.921876h-73.148438zm0 0" fill="#f6838d"/><path d="m387.292969 86.523438-26.480469-75.921876h-77.441406l12.824218 75.921876zm0 0" fill="#eff3f3"/><path d="m296.195312 86.523438-12.824218-75.921876h-68.3125l-12.308594 75.921876zm0 0" fill="#f6838d"/><path d="m202.75 86.523438 12.308594-75.921876h-72.546875l-27.339844 75.921876zm0 0" fill="#eff3f3"/><path d="m115.171875 86.523438 27.339844-75.921876h-81.675781l-38.566407 75.921876zm0 0" fill="#f6838d"/></g><path d="m480.65625 262.847656h-36.679688v-99.824218h17.527344c16.476563 0 29.882813-13.402344 29.882813-29.871094v-46.628906c0-1.871094-.539063-3.757813-1.527344-5.34375l-47.324219-75.921876c-1.847656-2.960937-5.085937-4.757812-8.574218-4.757812h-373.125c-3.804688 0-7.285157 2.136719-9.007813 5.527344l-38.566406 75.921875c-.710938 1.402343-1.09375 3-1.09375 4.574219v46.628906c0 16.46875 13.394531 29.871094 29.855469 29.871094h17.210937v99.824218h-27.917969c-17.269531 0-31.316406 14.042969-31.316406 31.300782 0 17.261718 14.046875 31.300781 31.316406 31.300781h.433594v163.167969c0 10.964843 8.925781 19.882812 19.894531 19.882812h27.082031c10.96875 0 19.894532-8.917969 19.894532-19.882812v-26.746094h308.460937v26.746094c0 10.964843 8.921875 19.882812 19.894531 19.882812h27.082032c10.96875 0 19.890625-8.917969 19.890625-19.882812v-163.167969h6.703125c17.285156 0 31.347656-14.042969 31.347656-31.300781 0-17.257813-14.0625-31.300782-31.34375-31.300782zm-19.15625-120.03125h-54.425781c-5.335938 0-9.679688-4.335937-9.679688-9.664062v-36.527344h73.785157v36.527344c.003906 5.328125-4.339844 9.664062-9.679688 9.664062zm-268.851562-9.664062c0 5.328125-4.34375 9.664062-9.683594 9.664062h-48.011719c-5.335937 0-9.679687-4.335937-9.679687-9.664062v-36.527344h67.375zm10.539062-112.449219-9.035156 55.71875h-64.605469l20.066406-55.71875zm71.644531 0 9.410157 55.71875h-69.621094l9.035156-55.71875zm78.804688 0 19.433593 55.71875h-68.335937l-9.414063-55.71875zm-140.785157 75.921875h73.242188v36.527344c0 5.328125-4.34375 9.664062-9.683594 9.664062h-53.878906c-5.335938 0-9.679688-4.335937-9.679688-9.664062zm93.445313 0h70.894531v36.527344c0 5.328125-4.328125 9.664062-9.652344 9.664062h-51.5625c-5.335937 0-9.679687-4.335937-9.679687-9.664062zm156.785156-20.203125h-68.613281l-19.433594-55.71875h53.316406zm-396.050781-55.71875h61.105469l-20.066407 55.71875h-69.339843zm-34.660156 112.449219v-36.527344h72.699218v36.527344c0 5.328125-4.34375 9.664062-9.679687 9.664062h-53.367187c-5.320313 0-9.652344-4.335937-9.652344-9.664062zm63.019531 29.871094c7.582031 0 14.507813-2.84375 19.78125-7.511719 5.273437 4.667969 12.199219 7.511719 19.78125 7.511719h48.011719c7.582031 0 14.507812-2.84375 19.785156-7.511719 5.273438 4.667969 12.199219 7.511719 19.78125 7.511719h53.878906c7.582032 0 14.511719-2.84375 19.785156-7.511719 5.273438 4.667969 12.203126 7.511719 19.785157 7.511719h51.558593c7.574219 0 14.492188-2.84375 19.761719-7.507813 5.273438 4.664063 12.199219 7.507813 19.777344 7.507813h16.695313v99.824218h-24.3125v-13.210937c0-18.425781-15-33.414063-33.4375-33.414063-18.433594 0-33.433594 14.988282-33.433594 33.414063v13.210937h-15.441406v-13.210937c0-18.425781-14.996094-33.414063-33.433594-33.414063s-33.433594 14.988282-33.433594 33.414063v13.210937h-43.296875v-13.210937c0-18.425781-15-33.414063-33.433594-33.414063h-94.113281v-53.199218zm283.863281 99.824218h-26.464844v-13.210937c0-7.285157 5.9375-13.210938 13.234376-13.210938 7.292968 0 13.230468 5.925781 13.230468 13.210938zm-82.308594 0h-26.464843v-13.210937c0-7.285157 5.9375-13.210938 13.234375-13.210938 7.292968 0 13.230468 5.925781 13.230468 13.210938zm-217.507812-26.421875h94.109375c7.296875 0 13.230469 5.925781 13.230469 13.210938v13.210937h-107.339844zm-1.023438 251.871094h-26.460937v-26.425781h26.460937zm375.332032 0h-26.460938v-26.425781h26.460938zm26.910156-183.050781h-186.378906c-5.582032 0-10.101563 4.519531-10.101563 10.101562 0 5.578125 4.523438 10.101563 10.101563 10.101563h159.46875v44.558593h-63.332032c-5.578124 0-10.101562 4.523438-10.101562 10.105469 0 5.578125 4.523438 10.101563 10.101562 10.101563h63.332032v51.453125h-401.792969v-51.453125h63.332031c5.578125 0 10.101563-4.523438 10.101563-10.101563 0-5.582031-4.523438-10.105469-10.101563-10.105469h-63.332031v-44.558593h160.414063c5.578124 0 10.101562-4.523438 10.101562-10.101563 0-5.582031-4.523438-10.101562-10.101562-10.101562h-181.050782c-6.125 0-11.113281-4.980469-11.113281-11.097656 0-6.117188 4.988281-11.09375 11.113281-11.09375h449.335938c6.144531 0 11.144531 4.976562 11.144531 11.09375 0 6.117187-5 11.097656-11.140625 11.097656zm0 0"/><path d="m143.632812 380.113281c0 20.050781 16.324219 36.359375 36.386719 36.359375h139.136719c20.0625 0 36.382812-16.308594 36.382812-36.359375 0-20.054687-16.320312-36.363281-36.382812-36.363281h-139.140625c-20.0625 0-36.382813 16.308594-36.382813 36.363281zm191.703126 0c0 8.910157-7.257813 16.15625-16.179688 16.15625h-139.140625c-8.917969 0-16.175781-7.246093-16.175781-16.15625 0-8.910156 7.257812-16.160156 16.175781-16.160156h139.140625c8.921875 0 16.179688 7.25 16.179688 16.160156zm0 0"/><path d="m252.648438 325.449219h.203124c5.578126 0 10.101563-4.523438 10.101563-10.101563 0-5.582031-4.523437-10.101562-10.101563-10.101562h-.203124c-5.578126 0-10.101563 4.519531-10.101563 10.101562 0 5.578125 4.523437 10.101563 10.101563 10.101563zm0 0"/></svg>