<svg height="511pt" viewBox="-42 0 511 511.99347" width="511pt" xmlns="http://www.w3.org/2000/svg"><path d="m418.628906 70.308594v364.886718c.007813 18.105469-7.183594 35.472657-19.988281 48.277344-12.804687 12.800782-30.171875 19.992188-48.277344 19.988282h-273.066406c-18.105469.003906-35.472656-7.1875-48.277344-19.988282-12.804687-12.804687-19.996093-30.171875-19.988281-48.277344v-364.886718c-.003906-9.054688 3.585938-17.742188 9.984375-24.148438l35.15625-35.160156c3.351563-3.328125 8.761719-3.328125 12.117187 0l32.339844 32.429688 6.742188 6.738281c3.355468 3.328125 8.765625 3.328125 12.117187 0l32.34375-32.425781 6.738281-6.742188c3.355469-3.328125 8.765626-3.328125 12.117188 0l32.34375 32.429688 6.742188 6.738281c3.363281 3.300781 8.75 3.300781 12.117187 0l32.339844-32.425781 6.742187-6.742188c3.351563-3.328125 8.761719-3.328125 12.117188 0l11.007812 11.09375 21.332032 21.335938 6.742187 6.738281c3.351563 3.328125 8.761719 3.328125 12.117187 0l32.339844-32.425781 6.742188-6.742188c3.355468-3.328125 8.765625-3.328125 12.117187 0l35.15625 35.160156c6.398438 6.40625 9.988281 15.09375 9.984375 24.148438zm0 0" fill="#dfc49c"/><path d="m393.03125 70.308594v364.886718c.003906 18.105469-7.1875 35.472657-19.992188 48.277344-12.800781 12.800782-30.167968 19.992188-48.277343 19.988282h-247.464844c-18.105469.003906-35.472656-7.1875-48.277344-19.988282-12.804687-12.804687-19.996093-30.171875-19.988281-48.277344v-364.886718c-.003906-9.054688 3.585938-17.742188 9.984375-24.148438l28.414063-28.417968 32.34375 32.425781c3.351562 3.328125 8.761718 3.328125 12.117187 0l6.738281-6.738281 6.742188 6.738281c3.355468 3.328125 8.765625 3.328125 12.117187 0l32.34375-32.425781 32.339844 32.425781c3.363281 3.300781 8.75 3.300781 12.117187 0l6.742188-6.738281 6.742188 6.738281c3.363281 3.300781 8.75 3.300781 12.117187 0l32.339844-32.425781 4.265625 4.351562 28.074218 28.074219c3.355469 3.328125 8.765626 3.328125 12.117188 0l6.742188-6.738281 6.742187 6.738281c3.351563 3.328125 8.761719 3.328125 12.117187 0l32.339844-32.425781 28.417969 28.417968c6.394531 6.40625 9.988281 15.09375 9.984375 24.148438zm0 0" fill="#ffe0b2"/><path d="m145.5625 127.992188h136.535156c32.988282 0 59.734375 26.746093 59.734375 59.734374v17.066407c0 4.714843-3.824219 8.535156-8.535156 8.535156h-238.933594c-4.710937 0-8.53125-3.820313-8.53125-8.535156v-17.066407c0-32.988281 26.742188-59.734374 59.730469-59.734374zm0 0" fill="#f57c00"/><path d="m241.136719 332.792969h92.160156c4.707031.015625 8.519531 3.828125 8.535156 8.535156v25.597656c0 9.054688-3.59375 17.738281-9.996093 24.140625-6.402344 6.402344-15.085938 9.996094-24.140626 9.992188h-187.730468c-9.054688.003906-17.738282-3.589844-24.140625-9.992188-6.402344-6.402344-9.996094-15.085937-9.992188-24.140625v-25.597656c.011719-4.707031 3.824219-8.519531 8.53125-8.535156h92.160157" fill="#f57c00"/><path d="m145.5625 127.992188h110.933594c32.992187 0 59.734375 26.746093 59.734375 59.734374v17.066407c0 4.714843-3.820313 8.535156-8.535157 8.535156h-213.332031c-4.710937 0-8.53125-3.820313-8.53125-8.535156v-17.066407c0-32.988281 26.742188-59.734374 59.730469-59.734374zm0 0" fill="#ff9801"/><path d="m318.191406 247.460938h6.570313c9.414062.027343 17.039062 7.652343 17.070312 17.066406v17.066406c-.03125 9.414062-7.65625 17.039062-17.070312 17.066406h-221.863281c-9.414063-.027344-17.039063-7.652344-17.066407-17.066406v-17.066406c.027344-9.414063 7.652344-17.039063 17.066407-17.066406h6.570312" fill="#783e22"/><path d="m294.957031 247.460938h5.914063c8.929687.519531 15.777344 8.128906 15.359375 17.066406v17.066406c.417969 8.9375-6.429688 16.546875-15.359375 17.066406h-199.679688c-8.933594-.519531-15.78125-8.128906-15.359375-17.066406v-17.066406c-.421875-8.9375 6.425781-16.546875 15.359375-17.066406h5.914063" fill="#a0522d"/><path d="m225.605469 332.792969h82.945312c4.464844.261719 7.890625 4.066406 7.679688 8.535156v25.597656c.898437 17.894531-12.832031 33.148438-30.71875 34.132813h-168.960938c-17.886719-.984375-31.617187-16.238282-30.71875-34.132813v-25.597656c-.210937-4.46875 3.214844-8.273437 7.679688-8.535156h82.941406" fill="#ff9801"/><path d="m324.761719 213.328125v17.066406c.011719 6.792969-2.683594 13.308594-7.484375 18.109375-4.804688 4.804688-11.320313 7.5-18.113282 7.488282-4.480468.039062-8.882812-1.171876-12.714843-3.496094-1.574219-.839844-3.035157-1.871094-4.351563-3.074219-3.597656 3.238281-8.035156 5.394531-12.800781 6.230469-1.410156.242187-2.835937.359375-4.265625.339844-4.503906.007812-8.925781-1.199219-12.800781-3.496094-1.542969-.847656-2.976563-1.878906-4.265625-3.074219-3.597656 3.238281-8.035156 5.394531-12.800782 6.230469-1.410156.242187-2.835937.359375-4.265624.339844-4.503907.007812-8.925782-1.199219-12.800782-3.496094-1.542968-.847656-2.976562-1.878906-4.265625-3.074219-3.601562 3.238281-8.035156 5.394531-12.800781 6.230469-1.410156.242187-2.839844.359375-4.269531.339844-4.503907.007812-8.925781-1.199219-12.796875-3.496094-1.542969-.847656-2.976563-1.878906-4.269532-3.074219-3.597656 3.238281-8.03125 5.394531-12.796874 6.230469-1.410157.242187-2.839844.359375-4.269532.339844-4.503906.007812-8.925781-1.199219-12.796875-3.496094-1.542969-.847656-2.976562-1.878906-4.269531-3.074219-3.597656 3.238281-8.03125 5.394531-12.800781 6.230469-1.40625.242187-2.835938.359375-4.265625.339844-14.128906-.023438-25.574219-11.472657-25.597656-25.597657v-17.066406zm0 0" fill="#549414"/><path d="m299.164062 213.328125v17.066406c-.027343 14.125-11.472656 25.574219-25.601562 25.597657-1.429688.019531-2.855469-.097657-4.265625-.339844-4.765625-.835938-9.203125-2.992188-12.800781-6.230469-1.292969 1.195313-2.722656 2.226563-4.265625 3.074219-3.875 2.296875-8.296875 3.503906-12.800781 3.496094-1.429688.019531-2.855469-.097657-4.265626-.339844-4.765624-.835938-9.203124-2.992188-12.800781-6.230469-1.292969 1.195313-2.726562 2.226563-4.265625 3.074219-3.875 2.296875-8.296875 3.503906-12.800781 3.496094-1.429687.019531-2.859375-.097657-4.265625-.339844-4.765625-.835938-9.203125-2.992188-12.800781-6.230469-1.292969 1.195313-2.726563 2.226563-4.265625 3.074219-3.875 2.296875-8.296875 3.503906-12.800782 3.496094-1.429687.019531-2.859374-.097657-4.265624-.339844-4.769532-.835938-9.203126-2.992188-12.800782-6.230469-1.292968 1.195313-2.726562 2.226563-4.265625 3.074219-3.875 2.296875-8.296875 3.503906-12.800781 3.496094-1.429688.019531-2.859375-.097657-4.269531-.339844-4.765625-.835938-9.199219-2.992188-12.796875-6.230469-1.316406 1.203125-2.78125 2.234375-4.351563 3.074219-7.878906-4.574219-12.722656-12.996094-12.714843-22.101563v-17.066406zm0 0" fill="#60a917"/><path d="m241.136719 332.792969h83.625v-34.132813h-221.863281v34.132813h83.625" fill="#c81e1e"/><path d="m225.1875 332.792969h73.976562v-34.132813h-196.265624v34.132813h73.972656" fill="#f44335"/><path d="m263.921875 298.660156-22.785156 34.132813-20.222657 30.292969c-1.558593 2.398437-4.226562 3.84375-7.082031 3.84375-2.859375 0-5.527343-1.445313-7.085937-3.84375l-5.714844-8.53125-14.507812-21.761719-22.785157-34.132813zm0 0" fill="#fec108"/><path d="m238.320312 298.660156-22.785156 34.132813-14.503906 21.761719-14.507812-21.761719-22.785157-34.132813zm0 0" fill="#ffdc00"/><path d="m350.363281 511.992188h-273.066406c-42.394531-.046876-76.753906-34.402344-76.800781-76.796876v-364.863281c-.027344-11.324219 4.472656-22.1875 12.5-30.171875l35.167968-35.167968c6.667969-6.65625 17.464844-6.65625 24.132813 0l39.132813 39.136718 39.132812-39.136718c6.753906-6.449219 17.382812-6.449219 24.132812 0l39.136719 39.136718 39.132813-39.136718c6.75-6.449219 17.378906-6.449219 24.132812 0l39.132813 39.136718 39.132812-39.136718c6.667969-6.65625 17.464844-6.65625 24.132813 0l35.167968 35.167968c8.027344 7.984375 12.527344 18.847656 12.5 30.171875v364.863281c-.046874 42.394532-34.40625 76.75-76.800781 76.796876zm-290.132812-494.933594-35.167969 35.167968c-4.8125 4.792969-7.515625 11.3125-7.5 18.105469v364.863281c.039062 32.972657 26.761719 59.695313 59.734375 59.730469h273.066406c32.972657-.035156 59.695313-26.757812 59.734375-59.730469v-364.863281c.015625-6.792969-2.6875-13.3125-7.5-18.105469l-35.167968-35.167968-39.132813 39.132812c-6.671875 6.648438-17.460937 6.652344-24.132813.007813l-39.132812-39.140625-39.132812 39.132812c-6.671876 6.648438-17.460938 6.652344-24.136719.007813l-39.132813-39.140625-39.132812 39.132812c-6.667969 6.648438-17.460938 6.652344-24.132813.007813zm0 0"/><path d="m43.164062 341.328125c-4.714843 0-8.535156-3.820313-8.535156-8.535156v-8.53125c0-4.714844 3.820313-8.535157 8.535156-8.535157 4.710938 0 8.53125 3.820313 8.53125 8.535157v8.53125c0 4.714843-3.820312 8.535156-8.53125 8.535156zm0 0"/><path d="m128.496094 477.859375h-51.199219c-23.550781-.027344-42.640625-19.113281-42.667969-42.664063v-68.269531c0-4.710937 3.820313-8.53125 8.535156-8.53125 4.710938 0 8.53125 3.820313 8.53125 8.53125v68.269531c.015626 14.128907 11.46875 25.582032 25.601563 25.597657h51.199219c4.714844 0 8.535156 3.820312 8.535156 8.535156 0 4.710937-3.820312 8.53125-8.535156 8.53125zm0 0"/><path d="m333.296875 221.859375h-238.933594c-9.421875-.011719-17.054687-7.644531-17.066406-17.066406v-17.066407c.042969-37.683593 30.582031-68.222656 68.265625-68.265624h136.535156c37.683594.042968 68.222656 30.582031 68.265625 68.265624v17.066407c-.011719 9.421875-7.644531 17.054687-17.066406 17.066406zm-187.734375-85.332031c-28.261719.03125-51.167969 22.933594-51.199219 51.199218v17.066407h238.941407l-.007813-17.066407c-.03125-28.265624-22.9375-51.167968-51.199219-51.199218zm0 0"/><path d="m307.695312 409.59375h-187.730468c-23.554688-.027344-42.640625-19.113281-42.667969-42.667969v-25.597656c.011719-9.421875 7.644531-17.058594 17.066406-17.066406h92.160157c4.714843 0 8.535156 3.820312 8.535156 8.53125 0 4.714843-3.820313 8.535156-8.535156 8.535156h-92.160157v25.597656c.015625 14.132813 11.46875 25.585938 25.601563 25.601563h187.730468c14.132813-.015625 25.585938-11.46875 25.601563-25.601563v-25.597656h-92.160156c-4.710938 0-8.53125-3.820313-8.53125-8.535156 0-4.710938 3.820312-8.53125 8.53125-8.53125h92.160156c9.421875.007812 17.054687 7.644531 17.066406 17.066406v25.597656c-.027343 23.554688-19.113281 42.640625-42.667969 42.667969zm0 0"/><path d="m299.164062 264.527344c-5.996093.003906-11.882812-1.578125-17.066406-4.59375-10.59375 5.984375-23.542968 5.984375-34.132812 0-10.59375 5.984375-23.542969 5.984375-34.132813 0-10.59375 5.984375-23.542969 5.984375-34.136719 0-10.589843 5.984375-23.539062 5.984375-34.132812 0-10.554688 6.113281-23.570312 6.125-34.136719.027344-10.566406-6.09375-17.070312-17.371094-17.0625-29.566407v-17.066406c0-4.714844 3.820313-8.535156 8.535157-8.535156h221.863281c4.714843 0 8.535156 3.820312 8.535156 8.535156v17.066406c-.019531 18.84375-15.289063 34.113281-34.132813 34.132813zm-17.066406-23.636719c2.117188-.003906 4.15625.785156 5.722656 2.207031 3.109376 2.8125 7.152344 4.367188 11.34375 4.363282 9.421876-.011719 17.054688-7.644532 17.066407-17.066407v-8.535156h-204.800781v8.535156c.011718 9.421875 7.644531 17.054688 17.066406 17.066407 4.191406.003906 8.234375-1.550782 11.34375-4.363282 3.25-2.941406 8.199218-2.941406 11.449218 0 6.515626 5.625 16.167969 5.625 22.683594 0 3.25-2.941406 8.199219-2.941406 11.449219 0 6.515625 5.625 16.167969 5.625 22.683594 0 3.25-2.941406 8.199219-2.941406 11.449219 0 6.515624 5.625 16.167968 5.625 22.683593 0 3.25-2.941406 8.199219-2.941406 11.449219 0 6.515625 5.625 16.167969 5.625 22.683594 0 1.566406-1.421875 3.609375-2.210937 5.726562-2.207031zm0 0"/><path d="m324.761719 307.195312h-221.863281c-14.132813-.015624-25.585938-11.46875-25.601563-25.601562v-17.066406c.015625-14.132813 11.46875-25.585938 25.601563-25.601563h6.570312c4.710938 0 8.53125 3.820313 8.53125 8.535157 0 4.710937-3.820312 8.53125-8.53125 8.53125h-6.570312c-4.710938.003906-8.53125 3.824218-8.535157 8.535156v17.066406c.003907 4.710938 3.824219 8.527344 8.535157 8.53125h221.863281c4.710937-.003906 8.53125-3.820312 8.535156-8.53125v-17.066406c-.003906-4.710938-3.824219-8.53125-8.535156-8.535156h-6.570313c-4.710937 0-8.53125-3.820313-8.53125-8.53125 0-4.714844 3.820313-8.535157 8.53125-8.535157h6.570313c14.132812.015625 25.585937 11.46875 25.601562 25.601563v17.066406c-.015625 14.132812-11.46875 25.585938-25.601562 25.601562zm0 0"/><path d="m324.761719 341.328125h-83.625c-4.710938 0-8.53125-3.820313-8.53125-8.535156 0-4.710938 3.820312-8.53125 8.53125-8.53125h75.09375v-17.066407h-204.800781v17.066407h75.09375c4.714843 0 8.535156 3.820312 8.535156 8.53125 0 4.714843-3.820313 8.535156-8.535156 8.535156h-83.625c-4.714844 0-8.535157-3.820313-8.535157-8.535156v-34.132813c0-4.710937 3.820313-8.535156 8.535157-8.535156h221.863281c4.714843 0 8.535156 3.824219 8.535156 8.535156v34.132813c0 4.714843-3.820313 8.535156-8.535156 8.535156zm0 0"/><path d="m213.832031 375.460938c-5.753906.011718-11.117187-2.902344-14.242187-7.730469l-42.949219-64.332031c-2.617187-3.921876-1.558594-9.21875 2.363281-11.835938 3.917969-2.617188 9.21875-1.558594 11.835938 2.363281l43.007812 64.425781 42.972656-64.425781c2.617188-3.921875 7.914063-4.980469 11.835938-2.363281s4.980469 7.914062 2.363281 11.835938l-43.007812 64.425781c-3.128907 4.78125-8.464844 7.65625-14.179688 7.636719zm0 0"/><path d="m119.964844 187.726562c-3.453125 0-6.5625-2.078124-7.882813-5.269531-1.320312-3.1875-.589843-6.855469 1.847657-9.296875l8.535156-8.53125c3.347656-3.234375 8.667968-3.191406 11.960937.101563s3.339844 8.613281.105469 11.960937l-8.535156 8.535156c-1.597656 1.601563-3.769532 2.503907-6.03125 2.5zm0 0"/><path d="m171.164062 179.195312c-2.265624 0-4.433593-.898437-6.035156-2.503906l-8.53125-8.53125c-3.234375-3.347656-3.1875-8.671875.101563-11.960937 3.292969-3.292969 8.617187-3.339844 11.964843-.105469l8.53125 8.535156c2.441407 2.4375 3.171876 6.109375 1.851563 9.296875s-4.433594 5.265625-7.882813 5.269531zm0 0"/><path d="m205.296875 187.726562c-3.449219 0-6.5625-2.078124-7.882813-5.269531-1.320312-3.1875-.589843-6.855469 1.851563-9.296875l8.53125-8.53125c3.347656-3.234375 8.671875-3.191406 11.960937.101563 3.292969 3.292969 3.339844 8.613281.105469 11.960937l-8.535156 8.535156c-1.597656 1.601563-3.769531 2.503907-6.03125 2.5zm0 0"/><path d="m290.628906 187.726562c-3.449218 0-6.558594-2.078124-7.878906-5.269531-1.324219-3.1875-.59375-6.855469 1.847656-9.296875l8.53125-8.53125c3.351563-3.234375 8.671875-3.191406 11.964844.101563 3.289062 3.292969 3.335938 8.613281.101562 11.960937l-8.53125 8.535156c-1.597656 1.601563-3.769531 2.503907-6.035156 2.5zm0 0"/><path d="m256.496094 179.195312c-2.261719 0-4.433594-.898437-6.03125-2.503906l-8.535156-8.53125c-3.234376-3.347656-3.1875-8.671875.105468-11.960937 3.289063-3.292969 8.613282-3.339844 11.960938-.105469l8.535156 8.535156c2.4375 2.4375 3.167969 6.109375 1.847656 9.296875-1.320312 3.1875-4.429687 5.265625-7.882812 5.269531zm0 0"/></svg>